<svg id="visual" viewBox="0 0 900 600" width="900" height="600" xmlns="http://www.w3.org/2000/svg" xmlns:xlink="http://www.w3.org/1999/xlink" version="1.1"><rect x="0" y="0" width="900" height="600" fill="#000"></rect><path d="M0 402L21.5 406.7C43 411.3 86 420.7 128.8 424.7C171.7 428.7 214.3 427.3 257.2 423.8C300 420.3 343 414.7 385.8 405.8C428.7 397 471.3 385 514.2 387.3C557 389.7 600 406.3 642.8 408C685.7 409.7 728.3 396.3 771.2 387.7C814 379 857 375 878.5 373L900 371L900 601L878.5 601C857 601 814 601 771.2 601C728.3 601 685.7 601 642.8 601C600 601 557 601 514.2 601C471.3 601 428.7 601 385.8 601C343 601 300 601 257.2 601C214.3 601 171.7 601 128.8 601C86 601 43 601 21.5 601L0 601Z" fill="#f9ad1b"></path><path d="M0 467L21.5 460.2C43 453.3 86 439.7 128.8 441.5C171.7 443.3 214.3 460.7 257.2 461.2C300 461.7 343 445.3 385.8 437.5C428.7 429.7 471.3 430.3 514.2 431.8C557 433.3 600 435.7 642.8 431.7C685.7 427.7 728.3 417.3 771.2 410C814 402.7 857 398.3 878.5 396.2L900 394L900 601L878.5 601C857 601 814 601 771.2 601C728.3 601 685.7 601 642.8 601C600 601 557 601 514.2 601C471.3 601 428.7 601 385.8 601C343 601 300 601 257.2 601C214.3 601 171.7 601 128.8 601C86 601 43 601 21.5 601L0 601Z" fill="#f1653b"></path><path d="M0 479L21.5 480C43 481 86 483 128.8 477.5C171.7 472 214.3 459 257.2 452.2C300 445.3 343 444.7 385.8 449.2C428.7 453.7 471.3 463.3 514.2 468.5C557 473.7 600 474.3 642.8 469.3C685.7 464.3 728.3 453.7 771.2 450.7C814 447.7 857 452.3 878.5 454.7L900 457L900 601L878.5 601C857 601 814 601 771.2 601C728.3 601 685.7 601 642.8 601C600 601 557 601 514.2 601C471.3 601 428.7 601 385.8 601C343 601 300 601 257.2 601C214.3 601 171.7 601 128.8 601C86 601 43 601 21.5 601L0 601Z" fill="#c82257"></path><path d="M0 494L21.5 496.7C43 499.3 86 504.7 128.8 510.3C171.7 516 214.3 522 257.2 521.2C300 520.3 343 512.7 385.8 506.5C428.7 500.3 471.3 495.7 514.2 498.2C557 500.7 600 510.3 642.8 517.7C685.7 525 728.3 530 771.2 532.8C814 535.7 857 536.3 878.5 536.7L900 537L900 601L878.5 601C857 601 814 601 771.2 601C728.3 601 685.7 601 642.8 601C600 601 557 601 514.2 601C471.3 601 428.7 601 385.8 601C343 601 300 601 257.2 601C214.3 601 171.7 601 128.8 601C86 601 43 601 21.5 601L0 601Z" fill="#820067"></path><path d="M0 527L21.5 530.3C43 533.7 86 540.3 128.8 541.2C171.7 542 214.3 537 257.2 534.8C300 532.7 343 533.3 385.8 535.7C428.7 538 471.3 542 514.2 547.5C557 553 600 560 642.8 557C685.7 554 728.3 541 771.2 541.3C814 541.7 857 555.3 878.5 562.2L900 569L900 601L878.5 601C857 601 814 601 771.2 601C728.3 601 685.7 601 642.8 601C600 601 557 601 514.2 601C471.3 601 428.7 601 385.8 601C343 601 300 601 257.2 601C214.3 601 171.7 601 128.8 601C86 601 43 601 21.5 601L0 601Z" fill="#1d1160"></path></svg>